<?xml version="1.0" standalone="no"?>
<!DOCTYPE svg PUBLIC "-//W3C//DTD SVG 20010904//EN"
 "http://www.w3.org/TR/2001/REC-SVG-20010904/DTD/svg10.dtd">
<svg version="1.0" xmlns="http://www.w3.org/2000/svg"
 width="700.000000pt" height="700.000000pt" viewBox="0 0 700.000000 700.000000"
 preserveAspectRatio="xMidYMid meet">
<metadata>
Created by potrace 1.14, written by Peter Selinger 2001-2017
</metadata>
<g transform="translate(0.000000,700.000000) scale(0.100000,-0.100000)"
fill="#000000" stroke="none">
<path d="M3278 6995 c-1 -1 -42 -5 -89 -9 -47 -4 -95 -8 -105 -10 -10 -2 -41
-7 -69 -10 -335 -44 -715 -158 -1030 -312 -180 -87 -448 -247 -555 -331 -8 -6
-51 -40 -95 -74 -340 -264 -650 -624 -875 -1014 -47 -81 -170 -327 -170 -339
0 -3 -11 -29 -24 -58 -41 -92 -114 -303 -142 -413 -4 -16 -8 -34 -10 -40 -5
-16 -25 -98 -30 -120 -39 -194 -47 -242 -60 -350 -26 -230 -26 -667 1 -826 2
-13 6 -46 9 -74 9 -78 22 -152 51 -285 21 -96 91 -339 114 -395 5 -11 29 -74
55 -141 55 -142 169 -372 246 -497 30 -48 60 -95 65 -105 24 -42 133 -191 208
-285 147 -182 310 -348 497 -504 102 -84 305 -233 320 -233 5 0 10 -4 10 -10
0 -5 4 -10 10 -10 5 0 42 -20 81 -45 264 -170 704 -347 1044 -421 72 -16 211
-41 274 -50 25 -3 57 -8 71 -10 165 -26 661 -25 840 1 14 2 45 6 70 9 41 6
110 17 185 31 418 77 870 262 1245 509 760 501 1288 1262 1496 2159 9 38 26
123 29 147 9 59 17 107 20 120 2 8 7 47 11 85 3 39 8 84 11 100 8 56 10 539 2
605 -4 36 -10 90 -13 120 -10 88 -27 198 -41 260 -3 14 -8 39 -11 55 -11 65
-64 265 -94 354 -121 369 -305 722 -538 1030 -52 69 -100 130 -106 137 -6 6
-41 45 -78 86 -410 457 -919 793 -1493 986 -168 57 -420 119 -555 137 -19 3
-46 7 -60 10 -13 2 -52 7 -86 11 -33 3 -74 8 -90 10 -32 5 -540 14 -546 9z"/>
</g>
</svg>
